<?xml version="1.0" encoding="iso-8859-1"?>
<!-- Uploaded to: SVG Repo, www.svgrepo.com, Generator: SVG Repo Mixer Tools -->
<svg version="1.1" id="Layer_1" xmlns="http://www.w3.org/2000/svg" xmlns:xlink="http://www.w3.org/1999/xlink" 
	 viewBox="0 0 393.309 393.309" xml:space="preserve">
<circle style="fill:#4957B8;" cx="196.655" cy="196.655" r="196.655"/>
<g>
	<rect x="185.341" y="119.79" style="fill:#F1F3F7;" width="22.562" height="186.828"/>
	<rect x="177.261" y="292.784" style="fill:#F1F3F7;" width="38.853" height="13.77"/>
	<path style="fill:#F1F3F7;" d="M135.434,269.446H80.743V117.786h54.691V269.446z M84.622,265.568h46.933V121.729H84.622
		C84.622,121.729,84.622,265.568,84.622,265.568z"/>
</g>
<rect x="77.705" y="262.335" style="fill:#F0582F;" width="60.768" height="8.986"/>
<path style="fill:#F1F3F7;" d="M312.566,269.446h-54.691V117.786h54.691V269.446z M261.818,265.568h46.933V121.729h-46.933V265.568z
	"/>
<rect x="254.901" y="262.335" style="fill:#F0582F;" width="60.768" height="8.986"/>
<polygon style="fill:#EE4A68;" points="352.259,125.543 196.655,18.166 41.051,125.543 "/>
<polygon style="fill:#FFFFFC;" points="298.02,125.543 196.655,18.166 95.289,125.543 "/>
<polygon style="fill:#EE4A68;" points="234.602,125.543 196.655,18.166 158.707,125.543 "/>
<path style="fill:#FBD303;" d="M337.067,102.012c-12.606-12.606-32.905-12.606-45.511,0l-16.485,16.42l-16.485-16.485
	c-12.606-12.606-32.905-12.606-45.511,0l-16.42,16.485l-16.485-16.485c-12.606-12.606-32.905-12.606-45.511,0l-16.42,16.485
	l-16.485-16.485c-12.606-12.606-32.905-12.606-45.511,0L29.35,128.84h334.675L337.067,102.012z"/>
<g>
	<circle style="fill:#886C60;" cx="78.998" cy="110.739" r="9.051"/>
	<circle style="fill:#886C60;" cx="157.414" cy="110.739" r="9.051"/>
	<circle style="fill:#886C60;" cx="235.895" cy="110.739" r="9.051"/>
	<circle style="fill:#886C60;" cx="314.311" cy="110.739" r="9.051"/>
</g>
<polygon style="fill:#FBD303;" points="341.721,306.554 51.588,306.554 24.501,359.499 368.808,359.499 "/>
</svg>